<svg width="165" height="161" fill="none" xmlns="http://www.w3.org/2000/svg" class="dots-2"><circle cx="1.7" cy="1.7" r="1.7" fill="#8AA4FF"></circle><circle cx="1.7" cy="24.1" r="1.7" fill="#8AA4FF"></circle><circle cx="1.7" cy="46.5" r="1.7" fill="#8AA4FF"></circle><circle cx="1.7" cy="68.9" r="1.7" fill="#8AA4FF"></circle><circle cx="1.7" cy="91.3" r="1.7" fill="#8AA4FF"></circle><circle cx="1.7" cy="113.7" r="1.7" fill="#8AA4FF"></circle><circle cx="1.7" cy="136.1" r="1.7" fill="#8AA4FF"></circle><circle cx="1.7" cy="158.6" r="1.7" fill="#8AA4FF"></circle><circle cx="142.9" cy="1.7" r="1.7" fill="#8AA4FF"></circle><circle cx="142.9" cy="24.1" r="1.7" fill="#8AA4FF"></circle><circle cx="142.9" cy="46.5" r="1.7" fill="#8AA4FF"></circle><circle cx="142.9" cy="68.9" r="1.7" fill="#8AA4FF"></circle><circle cx="142.9" cy="91.3" r="1.7" fill="#8AA4FF"></circle><circle cx="142.9" cy="113.7" r="1.7" fill="#8AA4FF"></circle><circle cx="142.9" cy="136.1" r="1.7" fill="#8AA4FF"></circle><circle cx="142.9" cy="158.6" r="1.7" fill="#8AA4FF"></circle><circle cx="102.6" cy="1.7" r="1.7" fill="#8AA4FF"></circle><circle cx="102.6" cy="24.1" r="1.7" fill="#8AA4FF"></circle><circle cx="102.6" cy="46.5" r="1.7" fill="#8AA4FF"></circle><circle cx="102.6" cy="68.9" r="1.7" fill="#8AA4FF"></circle><circle cx="102.6" cy="91.3" r="1.7" fill="#8AA4FF"></circle><circle cx="102.6" cy="113.7" r="1.7" fill="#8AA4FF"></circle><circle cx="102.6" cy="136.1" r="1.7" fill="#8AA4FF"></circle><circle cx="102.6" cy="158.6" r="1.7" fill="#8AA4FF"></circle><circle cx="122.7" cy="1.7" r="1.7" fill="#8AA4FF"></circle><circle cx="122.7" cy="24.1" r="1.7" fill="#8AA4FF"></circle><circle cx="122.7" cy="46.5" r="1.7" fill="#8AA4FF"></circle><circle cx="122.7" cy="68.9" r="1.7" fill="#8AA4FF"></circle><circle cx="122.7" cy="91.3" r="1.7" fill="#8AA4FF"></circle><circle cx="122.7" cy="113.7" r="1.7" fill="#8AA4FF"></circle><circle cx="122.7" cy="136.1" r="1.7" fill="#8AA4FF"></circle><circle cx="122.7" cy="158.6" r="1.7" fill="#8AA4FF"></circle><circle cx="82.4" cy="1.7" r="1.7" fill="#8AA4FF"></circle><circle cx="82.4" cy="24.1" r="1.7" fill="#8AA4FF"></circle><circle cx="82.4" cy="46.5" r="1.7" fill="#8AA4FF"></circle><circle cx="82.4" cy="68.9" r="1.7" fill="#8AA4FF"></circle><circle cx="82.4" cy="91.3" r="1.7" fill="#8AA4FF"></circle><circle cx="82.4" cy="113.7" r="1.7" fill="#8AA4FF"></circle><circle cx="82.4" cy="136.1" r="1.7" fill="#8AA4FF"></circle><circle cx="82.4" cy="158.6" r="1.7" fill="#8AA4FF"></circle><circle cx="62.2" cy="1.7" r="1.7" fill="#8AA4FF"></circle><circle cx="62.2" cy="24.1" r="1.7" fill="#8AA4FF"></circle><circle cx="62.2" cy="46.5" r="1.7" fill="#8AA4FF"></circle><circle cx="62.2" cy="68.9" r="1.7" fill="#8AA4FF"></circle><circle cx="62.2" cy="91.3" r="1.7" fill="#8AA4FF"></circle><circle cx="62.2" cy="113.7" r="1.7" fill="#8AA4FF"></circle><circle cx="62.2" cy="136.1" r="1.7" fill="#8AA4FF"></circle><circle cx="62.2" cy="158.6" r="1.7" fill="#8AA4FF"></circle><circle cx="42" cy="1.7" r="1.7" fill="#8AA4FF"></circle><circle cx="42" cy="24.1" r="1.7" fill="#8AA4FF"></circle><circle cx="42" cy="46.5" r="1.7" fill="#8AA4FF"></circle><circle cx="42" cy="68.9" r="1.7" fill="#8AA4FF"></circle><circle cx="42" cy="91.3" r="1.7" fill="#8AA4FF"></circle><circle cx="42" cy="113.7" r="1.7" fill="#8AA4FF"></circle><circle cx="42" cy="136.1" r="1.7" fill="#8AA4FF"></circle><circle cx="42" cy="158.6" r="1.7" fill="#8AA4FF"></circle><circle cx="21.9" cy="1.7" r="1.7" fill="#8AA4FF"></circle><circle cx="21.9" cy="24.1" r="1.7" fill="#8AA4FF"></circle><circle cx="21.9" cy="46.5" r="1.7" fill="#8AA4FF"></circle><circle cx="21.9" cy="68.9" r="1.7" fill="#8AA4FF"></circle><circle cx="21.9" cy="91.3" r="1.7" fill="#8AA4FF"></circle><circle cx="21.9" cy="113.7" r="1.7" fill="#8AA4FF"></circle><circle cx="21.9" cy="136.1" r="1.7" fill="#8AA4FF"></circle><circle cx="21.9" cy="158.6" r="1.7" fill="#8AA4FF"></circle><circle cx="163.1" cy="1.7" r="1.7" fill="#8AA4FF"></circle><circle cx="163.1" cy="24.1" r="1.7" fill="#8AA4FF"></circle><circle cx="163.1" cy="46.5" r="1.7" fill="#8AA4FF"></circle><circle cx="163.1" cy="68.9" r="1.7" fill="#8AA4FF"></circle><circle cx="163.1" cy="91.3" r="1.7" fill="#8AA4FF"></circle><circle cx="163.1" cy="113.7" r="1.7" fill="#8AA4FF"></circle><circle cx="163.1" cy="136.1" r="1.7" fill="#8AA4FF"></circle><circle cx="163.1" cy="158.6" r="1.7" fill="#8AA4FF"></circle></svg>