<svg xmlns="http://www.w3.org/2000/svg" viewBox="0 0 389.3 265.09"><defs><style>.cls-1,.cls-3{fill:#fff;}.cls-2{fill:#191f26;}.cls-3{stroke:#191f26;stroke-linecap:round;stroke-miterlimit:10;stroke-width:18px;}</style></defs><g id="Layer_2" data-name="Layer 2"><g id="Layer_1-2" data-name="Layer 1"><path class="cls-1" d="M204.69,253.09c-55.6,0-123.77-14.45-148.34-55-9.13-15.07-16.08-40.58,2.7-76.54A194.72,194.72,0,0,1,92,75.4C75.57,60.28,68.65,47.09,70.86,35.28,72.1,28.66,76.77,19.79,92,15.11A68.86,68.86,0,0,1,112.26,12c24.4,0,43.1,13.36,52.55,21.89a119.31,119.31,0,0,1,25.59-3h6.69a120.61,120.61,0,0,1,27,3.35C233.61,25.52,252.33,12,277,12a68.86,68.86,0,0,1,20.3,3.11c15.23,4.7,19.89,13.6,21.11,20.24,1.72,9.32-2.2,19.33-12,30.62a124.78,124.78,0,0,1-10.13,10.29,195,195,0,0,1,32,45.13c16.89,32.36,18.44,60.35,4.6,83.2C314.25,235.41,267.51,253.09,204.69,253.09Z"/><path class="cls-2" d="M277,24a56.76,56.76,0,0,1,16.76,2.57c30.8,9.5-.74,37.68-15.38,49.12,13.82,12.11,27.47,28.66,39.27,51.26,42.66,81.68-31,114.14-113,114.14-83,0-177.66-32.32-135-114C81.77,104,95.78,87.15,110,75,95,63.08,65.35,35.88,95.5,26.57A56.71,56.71,0,0,1,112.26,24c25.59,0,44.07,17.89,49,23.16a111.32,111.32,0,0,1,29.19-4.31h6.69a112.16,112.16,0,0,1,30.64,4.7C232,42.86,250.76,24,277,24m0-24c-24.9,0-44.41,11.67-56.21,21.24a128.34,128.34,0,0,0-23.74-2.39H190.4A127.71,127.71,0,0,0,168.12,21C156.36,11.56,136.9,0,112.26,0h0A81,81,0,0,0,88.42,3.64C66.41,10.43,60.58,25,59.07,33.07c-2.55,13.57,2.82,27.64,16.35,42.64a212.81,212.81,0,0,0-27,40.27c-21.37,40.91-13.06,70.61-2.34,88.32,12.89,21.27,36.15,37.42,69.12,48s66.88,12.8,89.49,12.8c29.48,0,56.85-3.94,79.15-11.39,27.76-9.28,47.73-23.71,59.35-42.89,11.12-18.35,19.41-49.72-4.23-95a212.76,212.76,0,0,0-26-39.09C327.12,61.41,332.8,47,330.25,33.18c-1.49-8.11-7.29-22.73-29.37-29.54A80.68,80.68,0,0,0,277,0Z"/><line class="cls-3" x1="297.31" y1="118.66" x2="356.15" y2="89.24"/><line class="cls-3" x1="315.72" y1="155.69" x2="380.3" y2="168.23"/><line class="cls-3" x1="91.99" y1="118.66" x2="33.15" y2="89.24"/><line class="cls-3" x1="73.58" y1="155.69" x2="9" y2="168.23"/><path class="cls-2" d="M104.42,133.67a1.79,1.79,0,0,1-1-3.38c8.08-4.34,22.66-8.53,43.28-.35,33.16,13.17,18.32,35.58,4.77,18.44C141.2,135.34,117.47,132.59,104.42,133.67Z"/><path class="cls-2" d="M284.88,133.67a1.79,1.79,0,0,0,1-3.38c-8.08-4.34-22.66-8.53-43.28-.35-33.16,13.17-18.32,35.58-4.77,18.44C248.1,135.34,271.83,132.59,284.88,133.67Z"/><path class="cls-2" d="M191.18,172.68l-9.36-9.13a5,5,0,0,1,3.47-8.52H204a5,5,0,0,1,3.47,8.52l-9.36,9.13A5,5,0,0,1,191.18,172.68Z"/><path class="cls-2" d="M187.33,201.87l-10.59,22.47c-6.4-.43-12.57-1.1-18.4-2l-4.19-30.84-28.42,22c-12.68-5.56-20.8-12.75-24.16-21.38-3.08-10.62-2-19.77,3-26.47,4.68-6.25,12.73-10,21.51-10a28,28,0,0,1,19.77,7.8C166.38,184,187.84,184,194.89,184c10,0,28.51,0,49.07-20.56a28,28,0,0,1,19.76-7.8c8.79,0,16.83,3.74,21.52,10,5,6.7,6.05,15.85,3,26.47-2.66,6.82-8.36,12.78-17,17.75l-16.12-20.11L243.3,220.12a209.85,209.85,0,0,1-40.05,4.68Z"/><path class="cls-2" d="M263.72,158.67c7.85,0,15,3.29,19.12,8.79,4.41,5.89,5.29,14.08,2.53,23.7-2.19,5.54-6.7,10.5-13.43,14.79l-11.23-14-6.5-8.11-3.77,9.69-9.36,24a206.93,206.93,0,0,1-36.3,4.21l-12-17.32-5.92-8.54-4.43,9.41-7.49,15.9q-7.2-.54-13.9-1.49l-3.19-23.46L156.42,186l-8.22,6.36L125.32,210c-10.81-5.05-18-11.52-20.91-18.87-2.76-9.62-1.88-17.81,2.54-23.7,4.12-5.5,11.27-8.79,19.11-8.79a25,25,0,0,1,17.65,6.92C165.14,187,187.53,187,194.89,187c9.66,0,29.75,0,51.19-21.44a25,25,0,0,1,17.64-6.92m0-6a30.85,30.85,0,0,0-21.88,8.68c-19.14,19.13-36.29,19.68-47,19.68S166,179.37,148,161.35a30.89,30.89,0,0,0-21.89-8.68c-17.69,0-35.08,13.94-27.34,40.42,3.92,10.19,13.68,18.15,27.45,23.87l25.7-19.9,3.8,27.91a220.89,220.89,0,0,0,22.92,2.49l9.24-19.61,13.88,20a212.87,212.87,0,0,0,43.81-5.15l10.51-27,14.45,18c10.14-5.36,17.36-12.24,20.58-20.64,7.74-26.48-9.65-40.42-27.34-40.42Z"/></g></g></svg>